<mxfile host="app.diagrams.net" agent="Mozilla/5.0 (Windows NT 10.0; Win64; x64) AppleWebKit/537.36 (KHTML, like Gecko) Chrome/128.0.0.0 Safari/537.36" version="24.7.7">
  <diagram name="Page-1" id="H-f7h14BIOwiemI4o8dz">
    <mxGraphModel dx="1434" dy="780" grid="1" gridSize="10" guides="1" tooltips="1" connect="1" arrows="1" fold="1" page="1" pageScale="1" pageWidth="827" pageHeight="1169" math="0" shadow="0">
      <root>
        <mxCell id="0" />
        <mxCell id="1" parent="0" />
        <mxCell id="PwN2sx8WR1cE-K9NehGq-4" style="edgeStyle=entityRelationEdgeStyle;rounded=0;orthogonalLoop=1;jettySize=auto;html=1;startArrow=none;endArrow=none;segment=10;curved=1;sourcePerimeterSpacing=0;targetPerimeterSpacing=0;" edge="1" parent="1" source="PwN2sx8WR1cE-K9NehGq-1" target="PwN2sx8WR1cE-K9NehGq-2">
          <mxGeometry relative="1" as="geometry" />
        </mxCell>
        <mxCell id="PwN2sx8WR1cE-K9NehGq-1" value="Flowable" style="ellipse;whiteSpace=wrap;html=1;align=center;newEdgeStyle={&quot;edgeStyle&quot;:&quot;entityRelationEdgeStyle&quot;,&quot;startArrow&quot;:&quot;none&quot;,&quot;endArrow&quot;:&quot;none&quot;,&quot;segment&quot;:10,&quot;curved&quot;:1,&quot;sourcePerimeterSpacing&quot;:0,&quot;targetPerimeterSpacing&quot;:0};treeFolding=1;treeMoving=1;" vertex="1" parent="1">
          <mxGeometry x="360" y="380" width="100" height="40" as="geometry" />
        </mxCell>
        <mxCell id="PwN2sx8WR1cE-K9NehGq-8" value="" style="edgeStyle=entityRelationEdgeStyle;rounded=0;orthogonalLoop=1;jettySize=auto;html=1;startArrow=none;endArrow=none;segment=10;curved=1;sourcePerimeterSpacing=0;targetPerimeterSpacing=0;exitX=1;exitY=0.5;exitDx=0;exitDy=0;" edge="1" parent="1" source="PwN2sx8WR1cE-K9NehGq-1" target="PwN2sx8WR1cE-K9NehGq-7">
          <mxGeometry relative="1" as="geometry">
            <Array as="points">
              <mxPoint x="460" y="400" />
            </Array>
          </mxGeometry>
        </mxCell>
        <mxCell id="PwN2sx8WR1cE-K9NehGq-2" value="tutorials" style="whiteSpace=wrap;html=1;rounded=1;arcSize=50;align=center;verticalAlign=middle;strokeWidth=1;autosize=1;spacing=4;treeFolding=1;treeMoving=1;newEdgeStyle={&quot;edgeStyle&quot;:&quot;entityRelationEdgeStyle&quot;,&quot;startArrow&quot;:&quot;none&quot;,&quot;endArrow&quot;:&quot;none&quot;,&quot;segment&quot;:10,&quot;curved&quot;:1,&quot;sourcePerimeterSpacing&quot;:0,&quot;targetPerimeterSpacing&quot;:0};" vertex="1" parent="1">
          <mxGeometry x="525" y="260" width="90" height="30" as="geometry" />
        </mxCell>
        <mxCell id="PwN2sx8WR1cE-K9NehGq-10" value="" style="edgeStyle=entityRelationEdgeStyle;rounded=0;orthogonalLoop=1;jettySize=auto;html=1;startArrow=none;endArrow=none;segment=10;curved=1;sourcePerimeterSpacing=0;targetPerimeterSpacing=0;" edge="1" parent="1" source="PwN2sx8WR1cE-K9NehGq-2" target="PwN2sx8WR1cE-K9NehGq-9">
          <mxGeometry relative="1" as="geometry">
            <Array as="points">
              <mxPoint x="600" y="270" />
              <mxPoint x="610" y="280" />
            </Array>
          </mxGeometry>
        </mxCell>
        <mxCell id="PwN2sx8WR1cE-K9NehGq-5" value="https://www.flowable.com/open-source/docs/" style="whiteSpace=wrap;html=1;shape=partialRectangle;top=0;left=0;bottom=1;right=0;points=[[0,1],[1,1]];fillColor=none;align=center;verticalAlign=bottom;routingCenterY=0.5;snapToPoint=1;recursiveResize=0;autosize=1;treeFolding=1;treeMoving=1;newEdgeStyle={&quot;edgeStyle&quot;:&quot;entityRelationEdgeStyle&quot;,&quot;startArrow&quot;:&quot;none&quot;,&quot;endArrow&quot;:&quot;none&quot;,&quot;segment&quot;:10,&quot;curved&quot;:1,&quot;sourcePerimeterSpacing&quot;:0,&quot;targetPerimeterSpacing&quot;:0};" vertex="1" parent="1">
          <mxGeometry x="680" y="180" width="280" height="30" as="geometry" />
        </mxCell>
        <mxCell id="PwN2sx8WR1cE-K9NehGq-6" value="" style="edgeStyle=entityRelationEdgeStyle;startArrow=none;endArrow=none;segment=10;curved=1;sourcePerimeterSpacing=0;targetPerimeterSpacing=0;rounded=0;exitX=1;exitY=0.5;exitDx=0;exitDy=0;" edge="1" target="PwN2sx8WR1cE-K9NehGq-5" parent="1" source="PwN2sx8WR1cE-K9NehGq-2">
          <mxGeometry relative="1" as="geometry">
            <mxPoint x="640" y="250" as="sourcePoint" />
          </mxGeometry>
        </mxCell>
        <mxCell id="PwN2sx8WR1cE-K9NehGq-7" value="AOS&amp;nbsp;" style="whiteSpace=wrap;html=1;rounded=1;arcSize=50;align=center;verticalAlign=middle;strokeWidth=1;autosize=1;spacing=4;treeFolding=1;treeMoving=1;newEdgeStyle={&quot;edgeStyle&quot;:&quot;entityRelationEdgeStyle&quot;,&quot;startArrow&quot;:&quot;none&quot;,&quot;endArrow&quot;:&quot;none&quot;,&quot;segment&quot;:10,&quot;curved&quot;:1,&quot;sourcePerimeterSpacing&quot;:0,&quot;targetPerimeterSpacing&quot;:0};" vertex="1" parent="1">
          <mxGeometry x="550" y="440" width="70" height="30" as="geometry" />
        </mxCell>
        <mxCell id="PwN2sx8WR1cE-K9NehGq-12" value="" style="edgeStyle=entityRelationEdgeStyle;rounded=0;orthogonalLoop=1;jettySize=auto;html=1;startArrow=none;endArrow=none;segment=10;curved=1;sourcePerimeterSpacing=0;targetPerimeterSpacing=0;" edge="1" parent="1" source="PwN2sx8WR1cE-K9NehGq-2" target="PwN2sx8WR1cE-K9NehGq-11">
          <mxGeometry relative="1" as="geometry" />
        </mxCell>
        <mxCell id="PwN2sx8WR1cE-K9NehGq-9" value="满足BPMN2.0规范（流程定义的工业XML规范）的流程定义" style="whiteSpace=wrap;html=1;shape=partialRectangle;top=0;left=0;bottom=1;right=0;points=[[0,1],[1,1]];fillColor=none;align=center;verticalAlign=bottom;routingCenterY=0.5;snapToPoint=1;recursiveResize=0;autosize=1;treeFolding=1;treeMoving=1;newEdgeStyle={&quot;edgeStyle&quot;:&quot;entityRelationEdgeStyle&quot;,&quot;startArrow&quot;:&quot;none&quot;,&quot;endArrow&quot;:&quot;none&quot;,&quot;segment&quot;:10,&quot;curved&quot;:1,&quot;sourcePerimeterSpacing&quot;:0,&quot;targetPerimeterSpacing&quot;:0};" vertex="1" parent="1">
          <mxGeometry x="680" y="240" width="360" height="30" as="geometry" />
        </mxCell>
        <mxCell id="PwN2sx8WR1cE-K9NehGq-15" style="edgeStyle=entityRelationEdgeStyle;rounded=0;orthogonalLoop=1;jettySize=auto;html=1;startArrow=none;endArrow=none;segment=10;curved=1;sourcePerimeterSpacing=0;targetPerimeterSpacing=0;" edge="1" parent="1" source="PwN2sx8WR1cE-K9NehGq-11" target="PwN2sx8WR1cE-K9NehGq-14">
          <mxGeometry relative="1" as="geometry" />
        </mxCell>
        <mxCell id="PwN2sx8WR1cE-K9NehGq-17" value="" style="edgeStyle=entityRelationEdgeStyle;rounded=0;orthogonalLoop=1;jettySize=auto;html=1;startArrow=none;endArrow=none;segment=10;curved=1;sourcePerimeterSpacing=0;targetPerimeterSpacing=0;exitX=1;exitY=0.5;exitDx=0;exitDy=0;" edge="1" parent="1" source="PwN2sx8WR1cE-K9NehGq-2" target="PwN2sx8WR1cE-K9NehGq-16">
          <mxGeometry relative="1" as="geometry">
            <Array as="points">
              <mxPoint x="660" y="324" />
              <mxPoint x="630" y="280" />
            </Array>
          </mxGeometry>
        </mxCell>
        <mxCell id="PwN2sx8WR1cE-K9NehGq-11" value="Flow able提供的应用（application）" style="whiteSpace=wrap;html=1;shape=partialRectangle;top=0;left=0;bottom=1;right=0;points=[[0,1],[1,1]];fillColor=none;align=center;verticalAlign=bottom;routingCenterY=0.5;snapToPoint=1;recursiveResize=0;autosize=1;treeFolding=1;treeMoving=1;newEdgeStyle={&quot;edgeStyle&quot;:&quot;entityRelationEdgeStyle&quot;,&quot;startArrow&quot;:&quot;none&quot;,&quot;endArrow&quot;:&quot;none&quot;,&quot;segment&quot;:10,&quot;curved&quot;:1,&quot;sourcePerimeterSpacing&quot;:0,&quot;targetPerimeterSpacing&quot;:0};" vertex="1" parent="1">
          <mxGeometry x="712" y="285" width="230" height="30" as="geometry" />
        </mxCell>
        <mxCell id="PwN2sx8WR1cE-K9NehGq-14" value="&lt;ol&gt;&lt;li&gt;Flowable Modeler&lt;/li&gt;&lt;li&gt;Flowable Admin&lt;/li&gt;&lt;li&gt;Flowable IDM&lt;/li&gt;&lt;li&gt;Flowable Task&lt;/li&gt;&lt;/ol&gt;" style="text;strokeColor=none;fillColor=none;html=1;whiteSpace=wrap;verticalAlign=middle;overflow=hidden;" vertex="1" parent="1">
          <mxGeometry x="1080" y="280" width="220" height="80" as="geometry" />
        </mxCell>
        <mxCell id="PwN2sx8WR1cE-K9NehGq-21" style="edgeStyle=entityRelationEdgeStyle;rounded=0;orthogonalLoop=1;jettySize=auto;html=1;startArrow=none;endArrow=none;segment=10;curved=1;sourcePerimeterSpacing=0;targetPerimeterSpacing=0;" edge="1" parent="1" source="PwN2sx8WR1cE-K9NehGq-16" target="PwN2sx8WR1cE-K9NehGq-20">
          <mxGeometry relative="1" as="geometry" />
        </mxCell>
        <mxCell id="PwN2sx8WR1cE-K9NehGq-16" value="core Engine" style="whiteSpace=wrap;html=1;shape=partialRectangle;top=0;left=0;bottom=1;right=0;points=[[0,1],[1,1]];fillColor=none;align=center;verticalAlign=bottom;routingCenterY=0.5;snapToPoint=1;recursiveResize=0;autosize=1;treeFolding=1;treeMoving=1;newEdgeStyle={&quot;edgeStyle&quot;:&quot;entityRelationEdgeStyle&quot;,&quot;startArrow&quot;:&quot;none&quot;,&quot;endArrow&quot;:&quot;none&quot;,&quot;segment&quot;:10,&quot;curved&quot;:1,&quot;sourcePerimeterSpacing&quot;:0,&quot;targetPerimeterSpacing&quot;:0};" vertex="1" parent="1">
          <mxGeometry x="712" y="360" width="100" height="30" as="geometry" />
        </mxCell>
        <mxCell id="PwN2sx8WR1cE-K9NehGq-20" value="&lt;ol&gt;&lt;li&gt;process definition -&amp;gt; BPMN 2.0 is stored as xml&lt;/li&gt;&lt;li&gt;process instance&lt;/li&gt;&lt;li&gt;start event&lt;/li&gt;&lt;li&gt;user task&lt;/li&gt;&lt;/ol&gt;" style="text;strokeColor=none;fillColor=none;html=1;whiteSpace=wrap;verticalAlign=middle;overflow=hidden;" vertex="1" parent="1">
          <mxGeometry x="850" y="360" width="308" height="80" as="geometry" />
        </mxCell>
      </root>
    </mxGraphModel>
  </diagram>
</mxfile>
